<?xml version="1.0" encoding="UTF-8" standalone="no"?>
<svg
   xmlns:dc="http://purl.org/dc/elements/1.1/"
   xmlns:cc="http://creativecommons.org/ns#"
   xmlns:rdf="http://www.w3.org/1999/02/22-rdf-syntax-ns#"
   xmlns:svg="http://www.w3.org/2000/svg"
   xmlns="http://www.w3.org/2000/svg"
   xmlns:sodipodi="http://sodipodi.sourceforge.net/DTD/sodipodi-0.dtd"
   xmlns:inkscape="http://www.inkscape.org/namespaces/inkscape"
   viewBox="0 0 96 96"
   version="1.1"
   id="svg6"
   sodipodi:docname="downvote.svg"
   inkscape:version="0.92.5 (2060ec1f9f, 2020-04-08)">
  <metadata
     id="metadata12">
    <rdf:RDF>
      <cc:Work
         rdf:about="">
        <dc:format>image/svg+xml</dc:format>
        <dc:type
           rdf:resource="http://purl.org/dc/dcmitype/StillImage" />
        <dc:title></dc:title>
      </cc:Work>
    </rdf:RDF>
  </metadata>
  <defs
     id="defs10" />
  <sodipodi:namedview
     pagecolor="#ffffff"
     bordercolor="#666666"
     borderopacity="1"
     objecttolerance="10"
     gridtolerance="10"
     guidetolerance="10"
     inkscape:pageopacity="0"
     inkscape:pageshadow="2"
     inkscape:window-width="1848"
     inkscape:window-height="1016"
     id="namedview8"
     showgrid="false"
     inkscape:zoom="2.4583333"
     inkscape:cx="48"
     inkscape:cy="48"
     inkscape:window-x="72"
     inkscape:window-y="27"
     inkscape:window-maximized="1"
     inkscape:current-layer="svg6" />
  <path
     d="m 18,72 h 6.1172 C 24.7441,83.18 28.7227,96 54,96 a 5.9966,5.9966 0 0 0 6,-6 c 0,-10.8809 0.1128,-20.3687 8.6917,-30 h 21.308299 a 5.9966,5.9966 0 0 0 6,-6 V 5.9999995 a 5.9966,5.9966 0 0 0 -6,-5.99999998220822 H 18 A 18.02,18.02 0 0 0 -4.822183e-7,18 V 54 A 18.02,18.02 0 0 0 18,72 Z M 84,48 H 72 V 12 H 84 Z M 12,18 a 6.0078,6.0078 0 0 1 6,-6 H 60 V 51.5977 C 50.0742,62.4844 48.3574,73.5234 48.0645,83.7187 36,82.4062 36,76.4883 36,66 A 5.9966,5.9966 0 0 0 30,60 H 18 a 6.0078,6.0078 0 0 1 -6,-6 z"
     id="path4"
     inkscape:connector-curvature="0" />
</svg>
